<svg width="124" height="32" viewBox="0 0 124 32" fill="none" xmlns="http://www.w3.org/2000/svg">
<path fill-rule="evenodd" clip-rule="evenodd" d="M16.0008 32.0017C24.8379 32.0017 32.0017 24.8379 32.0017 16.0008C32.0017 7.16383 24.8379 0 16.0008 0C7.1638 0 0 7.16383 0 16.0008C0 24.8379 7.1638 32.0017 16.0008 32.0017ZM20.9925 7.45387C21.2355 6.59079 20.3979 6.08043 19.633 6.62539L8.95496 14.2324C8.12539 14.8234 8.25588 16.0008 9.15097 16.0008H11.9628V15.9791H17.4429L12.9776 17.5546L11.0091 24.5478C10.7662 25.4109 11.6037 25.9213 12.3687 25.3763L23.0467 17.7693C23.8763 17.1783 23.7457 16.0008 22.8507 16.0008H18.5867L20.9925 7.45387Z" fill="#865BF7"/>
<path d="M103.203 10.9382C103.561 11.2668 103.994 11.431 104.502 11.431C105.025 11.431 105.458 11.2668 105.801 10.9382C106.145 10.6097 106.316 10.1766 106.316 9.63894C106.316 9.10131 106.145 8.66822 105.801 8.33967C105.458 8.01112 105.025 7.84685 104.502 7.84685C103.994 7.84685 103.561 8.01112 103.203 8.33967C102.859 8.66822 102.687 9.10131 102.687 9.63894C102.687 10.1766 102.859 10.6097 103.203 10.9382Z" fill="#865BF7"/>
<path fill-rule="evenodd" clip-rule="evenodd" d="M49.5898 23.3485C48.8879 23.677 48.0665 23.8413 47.1257 23.8413H40.0021V8.16046H47.0361C47.9918 8.16046 48.8207 8.32474 49.5226 8.65329C50.2394 8.9669 50.792 9.42239 51.1803 10.0198C51.5835 10.6022 51.7851 11.3041 51.7851 12.1255V12.3495C51.7851 13.0663 51.6507 13.6562 51.3819 14.1192C51.1131 14.5672 50.792 14.9181 50.4186 15.172C50.0602 15.411 49.7167 15.5827 49.3882 15.6873V16.0905C49.7167 16.1801 50.0751 16.3518 50.4634 16.6057C50.8517 16.8447 51.1803 17.1956 51.4491 17.6586C51.7328 18.1215 51.8747 18.7263 51.8747 19.4731V19.6971C51.8747 20.5632 51.6731 21.3099 51.2699 21.9372C50.8667 22.5495 50.3066 23.0199 49.5898 23.3485ZM48.3353 17.7706C47.947 17.4569 47.4243 17.3001 46.7672 17.3001H42.959V21.1531H46.7672C47.4094 21.1531 47.9246 20.9963 48.3129 20.6827C48.7161 20.3691 48.9178 19.9211 48.9178 19.3386V19.1146C48.9178 18.5322 48.7236 18.0842 48.3353 17.7706ZM48.2457 11.319C47.8574 11.0054 47.3497 10.8486 46.7224 10.8486H42.959V14.612H46.7224C47.3347 14.612 47.835 14.4552 48.2233 14.1416C48.6265 13.828 48.8281 13.3949 48.8281 12.8423V12.6183C48.8281 12.0508 48.634 11.6177 48.2457 11.319Z" fill="#865BF7"/>
<path fill-rule="evenodd" clip-rule="evenodd" d="M58.5434 24.1549C57.4383 24.1549 56.4452 23.9309 55.5641 23.4829C54.683 23.0348 53.9885 22.3852 53.4808 21.534C52.973 20.6827 52.7191 19.6597 52.7191 18.465V18.1066C52.7191 16.9119 52.973 15.8889 53.4808 15.0376C53.9885 14.1864 54.683 13.5367 55.5641 13.0887C56.4452 12.6407 57.4383 12.4167 58.5434 12.4167C59.6486 12.4167 60.6417 12.6407 61.5228 13.0887C62.4039 13.5367 63.0983 14.1864 63.6061 15.0376C64.1139 15.8889 64.3677 16.9119 64.3677 18.1066V18.465C64.3677 19.6597 64.1139 20.6827 63.6061 21.534C63.0983 22.3852 62.4039 23.0348 61.5228 23.4829C60.6417 23.9309 59.6486 24.1549 58.5434 24.1549ZM58.5434 21.646C59.4096 21.646 60.1264 21.3697 60.6939 20.8171C61.2614 20.2496 61.5452 19.4432 61.5452 18.3978V18.1738C61.5452 17.1284 61.2614 16.3294 60.6939 15.7769C60.1414 15.2094 59.4245 14.9256 58.5434 14.9256C57.6773 14.9256 56.9604 15.2094 56.3929 15.7769C55.8254 16.3294 55.5417 17.1284 55.5417 18.1738V18.3978C55.5417 19.4432 55.8254 20.2496 56.3929 20.8171C56.9604 21.3697 57.6773 21.646 58.5434 21.646Z" fill="#865BF7"/>
<path d="M74.9395 23.8413C74.2077 23.8413 73.6104 23.6173 73.1474 23.1692C72.6994 22.7063 72.4754 22.094 72.4754 21.3323V15.06H69.6976V12.7303H72.4754V9.28052H75.2979V12.7303H78.3445V15.06H75.2979V20.8395C75.2979 21.2875 75.507 21.5116 75.9252 21.5116H78.0757V23.8413H74.9395Z" fill="#865BF7"/>
<path d="M80.8322 23.2141C81.7582 23.8413 82.9454 24.1549 84.394 24.1549C85.8128 24.1549 86.9403 23.8413 87.7766 23.2141C88.6279 22.5719 89.0535 21.6684 89.0535 20.5035C89.0535 19.7269 88.8519 19.1146 88.4486 18.6666C88.0603 18.2037 87.5227 17.8527 86.8358 17.6138C86.1637 17.3599 85.4096 17.1583 84.5732 17.0089L83.946 16.8969C83.4382 16.8073 83.035 16.6804 82.7363 16.5161C82.4377 16.3369 82.2883 16.0681 82.2883 15.7097C82.2883 15.3811 82.4302 15.1272 82.7139 14.948C82.9977 14.7539 83.4084 14.6568 83.946 14.6568C84.4836 14.6568 84.9317 14.7763 85.2901 15.0152C85.6634 15.2542 85.9098 15.6574 86.0293 16.2249L88.6503 15.4184C88.3964 14.5224 87.8587 13.7981 87.0374 13.2455C86.216 12.693 85.1855 12.4167 83.946 12.4167C82.6318 12.4167 81.5715 12.7154 80.765 13.3127C79.9586 13.8952 79.5554 14.7389 79.5554 15.8441C79.5554 16.5758 79.7495 17.1732 80.1378 17.6362C80.5261 18.0991 81.0413 18.465 81.6835 18.7338C82.3257 18.9877 83.035 19.1893 83.8116 19.3386L84.4388 19.4507C85.0959 19.5701 85.5738 19.7269 85.8725 19.9211C86.1712 20.1003 86.3205 20.3616 86.3205 20.7051C86.3205 21.0486 86.1637 21.3398 85.8501 21.5788C85.5365 21.8028 85.0511 21.9148 84.394 21.9148C83.9609 21.9148 83.5577 21.855 83.1844 21.7356C82.8259 21.6012 82.5198 21.3846 82.2659 21.0859C82.027 20.7873 81.8552 20.3766 81.7507 19.8539L79.1522 20.5259C79.3463 21.6908 79.9063 22.5868 80.8322 23.2141Z" fill="#865BF7"/>
<path d="M93.9462 15.7993C93.4683 16.3668 93.2294 17.1657 93.2294 18.1962V23.8413H90.4068V8.16046H93.2294V14.0968H93.6326C93.7521 13.8578 93.9387 13.6189 94.1926 13.3799C94.4465 13.141 94.7825 12.9468 95.2007 12.7975C95.6338 12.6332 96.1788 12.5511 96.836 12.5511C97.7021 12.5511 98.4563 12.7527 99.0985 13.1559C99.7556 13.5442 100.263 14.0893 100.622 14.7912C100.98 15.4782 101.159 16.2846 101.159 17.2105V23.8413H98.3368V17.4345C98.3368 16.5982 98.1277 15.971 97.7096 15.5528C97.3064 15.1347 96.724 14.9256 95.9623 14.9256C95.0961 14.9256 94.4241 15.2168 93.9462 15.7993Z" fill="#865BF7"/>
<path d="M118.803 23.1692C118.355 22.7063 118.131 22.094 118.131 21.3323V15.06H112.58V23.8413H109.758V15.06H106.935V12.7303H109.758V10.6694C109.758 9.90775 109.982 9.30292 110.43 8.8549C110.893 8.39194 111.49 8.16046 112.222 8.16046H115.134V10.4902H113.208C112.789 10.4902 112.58 10.7142 112.58 11.1622V12.7303H118.131V9.28052H120.953V12.7303H124V15.06H120.953V20.8395C120.953 21.2875 121.163 21.5116 121.581 21.5116H123.731V23.8413H120.595C119.863 23.8413 119.266 23.6173 118.803 23.1692Z" fill="#865BF7"/>
<path d="M103.091 12.7303V23.8413H105.913V12.7303H103.091Z" fill="#865BF7"/>
<path d="M65.853 8.16046V23.8413H68.6756V8.16046H65.853Z" fill="#865BF7"/>
</svg>
